<svg width="11" height="19" viewBox="0 0 11 19" fill="none" xmlns="http://www.w3.org/2000/svg">
<path fill-rule="evenodd" clip-rule="evenodd" d="M7.20696 9.32842L1.18481 15.3506C1.17181 15.3627 1.15897 15.3751 1.1463 15.3878L0.439189 16.0949C-0.146598 16.6806 -0.146598 17.6304 0.439189 18.2162C1.02498 18.802 1.97472 18.802 2.56051 18.2162L2.88827 17.8884L2.88894 17.8891L9.68183 11.0962C10.6581 10.1199 10.6581 8.53696 9.68183 7.56065L3.2676 1.14644L2.88894 0.767756L2.56049 0.439328C1.9747 -0.146459 1.02496 -0.146459 0.43917 0.439328C-0.146617 1.02511 -0.146616 1.97486 0.43917 2.56065L0.767615 2.88908L1.14628 3.26776C1.14772 3.2692 1.14916 3.27063 1.1506 3.27206L7.20696 9.32842Z" fill="#7E98DF"/>
</svg>
