<?xml version="1.0" encoding="utf-8"?>
<!-- Generator: Adobe Illustrator 25.0.0, SVG Export Plug-In . SVG Version: 6.00 Build 0)  -->
<svg version="1.1" id="Layer_1" xmlns="http://www.w3.org/2000/svg" xmlns:xlink="http://www.w3.org/1999/xlink" x="0px" y="0px"
	 viewBox="0 0 11 19" style="enable-background:new 0 0 11 19;" xml:space="preserve">
<style type="text/css">
	.st0{fill:#2675EC;stroke:#FFFFFF;}
</style>
<path class="st0" d="M3.2,9.3l6-6c0,0,0,0,0,0L10,2.6C10.6,2,10.6,1,10,0.4c-0.6-0.6-1.5-0.6-2.1,0L7.5,0.8l0,0L0.7,7.6
	c-1,1-1,2.6,0,3.5l6.4,6.4l0.4,0.4l0.3,0.3c0.6,0.6,1.5,0.6,2.1,0c0.6-0.6,0.6-1.5,0-2.1l-0.3-0.3l-0.4-0.4c0,0,0,0,0,0L3.2,9.3z"/>
</svg>
