<svg width="31" height="13" viewBox="0 0 31 13" fill="none" xmlns="http://www.w3.org/2000/svg">
<path d="M2.29716 12.7362L6.86815 12.7362C8.12834 12.7362 9.15365 11.7109 9.15365 10.4507L9.15365 8.373C9.15365 7.41829 9.93055 6.64167 10.8848 6.64153L19.8943 6.64537C20.8512 6.64537 21.6257 7.41972 21.6257 8.37681C21.6257 8.71147 21.6257 9.67244 21.6257 10.4545C21.6257 11.7092 22.6391 12.74 23.9124 12.74L28.475 12.7328C29.7352 12.7328 30.7605 11.7075 30.7605 10.4506C30.7646 9.51422 30.7659 9.21217 30.7677 8.7923C30.7677 4.24784 27.0705 0.550661 22.5263 0.550661L8.25333 0.546929C3.69817 0.546893 0.0116958 4.23301 0.0117322 8.78853L0.0116971 10.4507C0.0116971 11.711 1.03694 12.7362 2.29716 12.7362ZM29.2368 10.4473C29.2368 10.8674 28.8952 11.2091 28.4738 11.2092L23.9112 11.2164C23.4902 11.2164 23.1494 10.8756 23.1494 10.4545L23.1494 9.69269L29.2401 9.69269L29.2368 10.4473ZM8.25308 2.07061L22.5261 2.07437C26.0421 2.07437 28.8991 4.73816 29.2151 8.16901L23.1421 8.16901C23.0355 6.46666 21.624 5.12166 19.8946 5.12166L10.8854 5.11789C10.8853 5.11789 10.8852 5.11789 10.8851 5.11789C9.15757 5.11785 7.74398 6.46063 7.63733 8.16517H1.56417C1.87689 4.74297 4.71293 2.07061 8.25308 2.07061ZM1.5353 10.4508V9.68888L7.62997 9.68892L7.63001 10.4507C7.62997 10.8708 7.28828 11.2126 6.86815 11.2126H2.29716C1.87704 11.2126 1.53527 10.8708 1.5353 10.4508Z" fill="#2675ec"/>
</svg>
