<?xml version="1.0" encoding="utf-8"?>
<!-- Generator: Adobe Illustrator 25.0.0, SVG Export Plug-In . SVG Version: 6.00 Build 0)  -->
<svg version="1.1" id="Layer_1" xmlns="http://www.w3.org/2000/svg" xmlns:xlink="http://www.w3.org/1999/xlink" x="0px" y="0px"
	 viewBox="0 0 27 24" style="enable-background:new 0 0 27 24;" xml:space="preserve">
<style type="text/css">
	.st0{fill:#FFFFFF;filter:url(#Adobe_OpacityMaskFilter);}
	.st1{mask:url(#path-1-inside-1_1_);fill:none;stroke:#2675EC;stroke-width:4;}
	.st2{fill:#2675EC;}
</style>
<defs>
	<filter id="Adobe_OpacityMaskFilter" filterUnits="userSpaceOnUse" x="-2" y="-2" width="30.3" height="27.9">
		<feColorMatrix  type="matrix" values="1 0 0 0 0  0 1 0 0 0  0 0 1 0 0  0 0 0 1 0"/>
	</filter>
</defs>
<mask maskUnits="userSpaceOnUse" x="-2" y="-2" width="30.3" height="27.9" id="path-1-inside-1_1_">
	<path class="st0" d="M0,4c0-2.2,1.8-4,4-4h18.3c2.2,0,4,1.8,4,4v15.9c0,2.2-1.8,4-4,4H1c-0.6,0-1-0.4-1-1V4z"/>
</mask>
<path class="st1" d="M0,4c0-2.2,1.8-4,4-4h18.3c2.2,0,4,1.8,4,4v15.9c0,2.2-1.8,4-4,4H1c-0.6,0-1-0.4-1-1V4z"/>
<path class="st2" d="M7.2,10.8h12c0.7,0,1.2,0.5,1.2,1.2l0,0c0,0.7-0.5,1.2-1.2,1.2h-12C6.5,13.2,6,12.6,6,12l0,0
	C6,11.3,6.5,10.8,7.2,10.8z"/>
<path class="st2" d="M7.2,6h12c0.7,0,1.2,0.5,1.2,1.2v0c0,0.7-0.5,1.2-1.2,1.2h-12C6.5,8.4,6,7.8,6,7.2v0C6,6.5,6.5,6,7.2,6z"/>
<path class="st2" d="M7.2,15.6h12c0.7,0,1.2,0.5,1.2,1.2l0,0c0,0.7-0.5,1.2-1.2,1.2h-12c-0.7,0-1.2-0.5-1.2-1.2l0,0
	C6,16.1,6.5,15.6,7.2,15.6z"/>
</svg>
