<svg width="27" height="25" viewBox="0 0 27 25" fill="none" xmlns="http://www.w3.org/2000/svg">
<mask id="path-1-inside-1" fill="white">
<path d="M0 4.28674C0 2.0776 1.79086 0.286743 4 0.286743H22.3218C24.531 0.286743 26.3218 2.0776 26.3218 4.28674V20.2157C26.3218 22.4248 24.531 24.2157 22.3218 24.2157H1C0.447715 24.2157 0 23.768 0 23.2157V4.28674Z"/>
</mask>
<path d="M0 4.28674C0 2.0776 1.79086 0.286743 4 0.286743H22.3218C24.531 0.286743 26.3218 2.0776 26.3218 4.28674V20.2157C26.3218 22.4248 24.531 24.2157 22.3218 24.2157H1C0.447715 24.2157 0 23.768 0 23.2157V4.28674Z" stroke="white" stroke-width="4" mask="url(#path-1-inside-1)"/>
<rect x="5.98242" y="11.0547" width="14.3574" height="2.39289" rx="1.19645" fill="white"/>
<rect x="5.98242" y="6.26898" width="14.3574" height="2.39289" rx="1.19645" fill="white"/>
<rect x="5.98242" y="15.8405" width="14.3574" height="2.39289" rx="1.19645" fill="white"/>
</svg>
