<svg width="23" height="24" viewBox="0 0 23 24" fill="none" xmlns="http://www.w3.org/2000/svg">
<path fill-rule="evenodd" clip-rule="evenodd" d="M16 6.5C16 8.98528 13.9853 11 11.5 11C9.01472 11 7 8.98528 7 6.5C7 4.01472 9.01472 2 11.5 2C13.9853 2 16 4.01472 16 6.5ZM14.3333 12.3516C16.5036 11.2989 18 9.07417 18 6.5C18 2.91015 15.0899 0 11.5 0C7.91015 0 5 2.91015 5 6.5C5 9.07417 6.49637 11.2989 8.66672 12.3516C4.31789 13.4535 0.956634 17.0331 0.173301 21.5C0.0593967 22.1495 0 22.8178 0 23.5H2H21H23C23 22.8178 22.9406 22.1495 22.8267 21.5C22.0434 17.0331 18.6821 13.4535 14.3333 12.3516ZM2.2109 21.5C3.12935 17.2137 6.93938 14 11.5 14C16.0606 14 19.8707 17.2137 20.7891 21.5H2.2109Z" fill="#7E98DF"/>
</svg>
