<svg width="25" height="25" viewBox="0 0 25 25" fill="none" xmlns="http://www.w3.org/2000/svg">
<circle cx="12.5" cy="12.5" r="11.5" stroke="#7E98DF" stroke-width="2"/>
<path d="M13.04 14.48H11.2C11.2 14.0533 11.296 13.6533 11.488 13.28C11.68 12.896 11.9147 12.5707 12.192 12.304C12.4693 12.0267 12.7467 11.7653 13.024 11.52C13.3013 11.264 13.536 10.9867 13.728 10.688C13.92 10.3893 14.016 10.0853 14.016 9.776C14.016 9.33867 13.8613 8.99733 13.552 8.752C13.2427 8.50667 12.8267 8.384 12.304 8.384C11.8027 8.384 11.3707 8.512 11.008 8.768C10.6453 9.024 10.384 9.38667 10.224 9.856L8.64 8.96C8.928 8.21333 9.40267 7.632 10.064 7.216C10.736 6.8 11.4987 6.592 12.352 6.592C13.312 6.592 14.1333 6.864 14.816 7.408C15.5093 7.952 15.856 8.704 15.856 9.664C15.856 10.1013 15.76 10.5173 15.568 10.912C15.376 11.3067 15.1413 11.6427 14.864 11.92C14.5867 12.1973 14.3093 12.4693 14.032 12.736C13.7547 12.992 13.52 13.2693 13.328 13.568C13.136 13.8667 13.04 14.1707 13.04 14.48ZM12.128 15.792C12.4587 15.792 12.7413 15.9093 12.976 16.144C13.2107 16.3787 13.328 16.6613 13.328 16.992C13.328 17.3227 13.2107 17.6053 12.976 17.84C12.7413 18.0747 12.4587 18.192 12.128 18.192C11.7973 18.192 11.5147 18.0747 11.28 17.84C11.0453 17.6053 10.928 17.3227 10.928 16.992C10.928 16.6613 11.04 16.3787 11.264 16.144C11.4987 15.9093 11.7867 15.792 12.128 15.792Z" fill="#7E98DF"/>
</svg>
