<svg width="24" height="24" viewBox="0 0 24 24" fill="none" xmlns="http://www.w3.org/2000/svg">
<rect x="1" y="1" width="21.4186" height="21.4186" rx="2" stroke="#2675ec" stroke-width="2"/>
<path d="M9.56582 13.2076L3.00509 20.3647C2.78251 20.6075 2.93239 21.0002 3.26015 21.033L8.62812 21.5698H13.5584L20.0769 20.9772C20.2352 20.9628 20.3699 20.8561 20.4202 20.7054L21.5495 17.3174C21.5631 17.2767 21.57 17.2339 21.57 17.191V12.8859L22.078 7.34397C22.113 6.96258 21.6436 6.75485 21.3848 7.03716L13.2369 15.9257C13.0784 16.0987 12.8057 16.0987 12.6472 15.9257L10.1555 13.2076C9.99701 13.0346 9.72435 13.0346 9.56582 13.2076Z" fill="#2675ec" stroke="#2675ec" stroke-width="2"/>
</svg>
