<?xml version="1.0" encoding="utf-8"?>
<!-- Generator: Adobe Illustrator 25.0.0, SVG Export Plug-In . SVG Version: 6.00 Build 0)  -->
<svg version="1.1" id="Layer_1" xmlns="http://www.w3.org/2000/svg" xmlns:xlink="http://www.w3.org/1999/xlink" x="0px" y="0px"
	viewBox="0 0 22 19" style="enable-background:new 0 0 22 19;" xml:space="preserve">
<style type="text/css">
	.st0{fill:#2675EC;}
</style>
<path class="st0" d="M1.6,0h18.7C21.3,0,22,0.7,22,1.6l0,0c0,0.9-0.7,1.6-1.6,1.6H1.6C0.7,3.3,0,2.6,0,1.6l0,0C0,0.7,0.7,0,1.6,0z"
	/>
<path class="st0" d="M1.6,7.7h9.9c0.9,0,1.6,0.7,1.6,1.6v0c0,0.9-0.7,1.6-1.6,1.6H1.6C0.7,11,0,10.3,0,9.3v0C0,8.4,0.7,7.7,1.6,7.7z
	"/>
<path class="st0" d="M1.6,15.4h18.7c0.9,0,1.6,0.7,1.6,1.6l0,0c0,0.9-0.7,1.6-1.6,1.6H1.6C0.7,18.7,0,18,0,17l0,0
	C0,16.1,0.7,15.4,1.6,15.4z"/>
</svg>
