<?xml version="1.0" encoding="utf-8"?>
<!-- Generator: Adobe Illustrator 25.0.0, SVG Export Plug-In . SVG Version: 6.00 Build 0)  -->
<svg version="1.1" id="Layer_1" xmlns="http://www.w3.org/2000/svg" xmlns:xlink="http://www.w3.org/1999/xlink" x="0px" y="0px"
	 viewBox="0 0 23 23" style="enable-background:new 0 0 23 23;" xml:space="preserve">
<style type="text/css">
	.st0{fill:#FFFFFF;}
	.st1{fill:#2675EC;}
</style>
<path class="st0" d="M11.1-0.9L11.1-0.9c6.4,0,11.5,5.1,11.5,11.5l0,0c0,6.4-5.1,11.5-11.5,11.5l0,0c-6.4,0-11.5-5.1-11.5-11.5l0,0
	C-0.4,4.2,4.8-0.9,11.1-0.9z"/>
<path class="st1" d="M11.5,5L11.5,5c3.6,0,6.5,2.9,6.5,6.5l0,0c0,3.6-2.9,6.5-6.5,6.5l0,0C7.9,18,5,15.1,5,11.5l0,0
	C5,7.9,7.9,5,11.5,5z"/>
</svg>
