<?xml version="1.0" encoding="utf-8"?>
<!-- Generator: Adobe Illustrator 25.0.0, SVG Export Plug-In . SVG Version: 6.00 Build 0)  -->
<svg version="1.1" id="Layer_1" xmlns="http://www.w3.org/2000/svg" xmlns:xlink="http://www.w3.org/1999/xlink" x="0px" y="0px"
	 viewBox="0 0 23 23" style="enable-background:new 0 0 23 23;" xml:space="preserve">
<style type="text/css">
	.st0{fill:#2675EC;}
</style>
<path class="st0" d="M11.5,0L11.5,0C12.3,0,13,0.7,13,1.5v20c0,0.8-0.7,1.5-1.5,1.5l0,0c-0.8,0-1.5-0.7-1.5-1.5v-20
	C10,0.7,10.7,0,11.5,0z"/>
<path class="st0" d="M23,11.5L23,11.5c0,0.8-0.7,1.5-1.5,1.5h-20C0.7,13,0,12.3,0,11.5l0,0C0,10.7,0.7,10,1.5,10h20
	C22.3,10,23,10.7,23,11.5z"/>
</svg>
