<?xml version="1.0" encoding="utf-8"?>
<!-- Generator: Adobe Illustrator 25.0.0, SVG Export Plug-In . SVG Version: 6.00 Build 0)  -->
<svg version="1.1" id="Layer_1" xmlns="http://www.w3.org/2000/svg" xmlns:xlink="http://www.w3.org/1999/xlink" x="0px" y="0px"
	 viewBox="0 0 36 36" style="enable-background:new 0 0 36 36;" xml:space="preserve">
<style type="text/css">
	.st0{fill:#FF0000;}
</style>
<path class="st0" d="M5.1,21.8h4.4c1.2,0,2.2-1,2.2-2.2v-2c0-0.9,0.7-1.7,1.7-1.7l8.6,0c0.9,0,1.7,0.7,1.7,1.7c0,0.3,0,1.2,0,2
	c0,1.2,1,2.2,2.2,2.2l4.4,0c1.2,0,2.2-1,2.2-2.2c0-0.9,0-1.2,0-1.6c0-4.4-3.5-7.9-7.9-7.9l-13.7,0c-4.4,0-7.9,3.5-7.9,7.9l0,1.6
	C2.9,20.8,3.9,21.8,5.1,21.8z M30.9,19.6c0,0.4-0.3,0.7-0.7,0.7l-4.4,0c-0.4,0-0.7-0.3-0.7-0.7v-0.7H31L30.9,19.6z M10.8,11.6
	l13.7,0c3.4,0,6.1,2.6,6.4,5.9h-5.8c-0.1-1.6-1.5-2.9-3.1-2.9l-8.6,0h0c-1.7,0-3,1.3-3.1,2.9H4.4C4.7,14.2,7.4,11.6,10.8,11.6z
	 M4.4,19.6v-0.7h5.9v0.7c0,0.4-0.3,0.7-0.7,0.7H5.1C4.7,20.4,4.4,20,4.4,19.6z"/>
</svg>
