<svg width="25" height="24" viewBox="0 0 25 24" fill="none" xmlns="http://www.w3.org/2000/svg">
<path fill-rule="evenodd" clip-rule="evenodd" d="M21.1295 8.7188H21.6016C23.1524 8.7188 24.4141 9.98048 24.4141 11.5313V12.4688C24.4141 14.0196 23.1524 15.2813 21.6016 15.2813H21.1294C21.0052 15.2813 20.8926 15.3595 20.8426 15.4806L20.8355 15.4978C20.785 15.6194 20.8091 15.7547 20.897 15.8425L21.2309 16.1764C21.7621 16.7076 22.0546 17.4138 22.0546 18.1651C22.0546 18.9163 21.7621 19.6226 21.2309 20.1538L20.568 20.8167C20.0367 21.348 19.3305 21.6405 18.5792 21.6405C17.8279 21.6405 17.1216 21.348 16.5904 20.8167L16.2566 20.4829C16.1688 20.3951 16.0334 20.371 15.9119 20.4214L15.8935 20.429C15.7735 20.4786 15.6953 20.5911 15.6953 20.7153V21.1875C15.6953 22.7383 14.4336 24 12.8828 24H11.9453C10.3945 24 9.13281 22.7383 9.13281 21.1875V20.7153C9.13281 20.5911 9.05462 20.4786 8.93355 20.4285L8.91587 20.4212C8.7948 20.3709 8.65928 20.395 8.57148 20.4829L8.23769 20.8167C7.7065 21.348 7.00023 21.6405 6.24892 21.6405C5.4977 21.6405 4.79139 21.348 4.26016 20.8167L3.59725 20.1538C3.06606 19.6226 2.77352 18.9163 2.77352 18.1651C2.77352 17.4138 3.06606 16.7076 3.5973 16.1763L3.93109 15.8425C4.01894 15.7546 4.04308 15.6193 3.99259 15.4977L3.98425 15.4775C3.93545 15.3594 3.82291 15.2812 3.69869 15.2812H3.22656C1.67575 15.2812 0.414062 14.0195 0.414062 12.4687V11.5312C0.414062 9.98039 1.67575 8.7187 3.22656 8.7187H3.69873C3.82291 8.7187 3.93555 8.64047 3.98552 8.51939L3.99119 8.5057C4.04308 8.38064 4.01898 8.24531 3.93114 8.15742L3.59734 7.82363C2.5007 6.72698 2.5007 4.94273 3.5973 3.84609L4.2602 3.18328C4.79144 2.65205 5.4977 2.3595 6.24897 2.3595C7.00023 2.3595 7.70655 2.65205 8.23773 3.18328L8.57158 3.51712C8.65937 3.60497 8.79484 3.62911 8.9163 3.57858L8.93463 3.57098C9.05467 3.52144 9.13286 3.40889 9.13286 3.28472V2.8125C9.13286 1.26169 10.3945 0 11.9454 0H12.8829C14.4337 0 15.6954 1.26169 15.6954 2.8125V3.28472C15.6954 3.40889 15.7735 3.52144 15.8946 3.57145L15.9123 3.57877C16.0333 3.62906 16.1688 3.60497 16.2567 3.51708L16.5905 3.18328C17.1217 2.65205 17.8279 2.3595 18.5793 2.3595C19.3305 2.3595 20.0368 2.65205 20.568 3.18328L21.2309 3.84619C22.3275 4.94278 22.3275 6.72708 21.2309 7.82367L20.897 8.15752C20.8092 8.24536 20.7851 8.38069 20.8356 8.50228L20.8439 8.52253C20.8927 8.64056 21.0053 8.7188 21.1295 8.7188ZM21.6016 13.4062C22.1185 13.4062 22.5391 12.9857 22.5391 12.4688V11.5312C22.5391 11.0143 22.1185 10.5938 21.6016 10.5938H21.1294C20.2433 10.5938 19.4505 10.0605 19.1096 9.23517L19.1026 9.21806C18.7612 8.3963 18.9446 7.45828 19.5711 6.83166L19.905 6.49777C20.2705 6.13223 20.2705 5.53748 19.905 5.17195L19.2421 4.50905C19.065 4.332 18.8296 4.23445 18.5792 4.23445C18.3287 4.23445 18.0933 4.33195 17.9163 4.509L17.5824 4.84289C16.9557 5.46942 16.0176 5.65275 15.1926 5.31009L15.1799 5.30484C14.3536 4.96369 13.8203 4.17089 13.8203 3.28472V2.8125C13.8203 2.29556 13.3997 1.875 12.8828 1.875H11.9453C11.4284 1.875 11.0078 2.29556 11.0078 2.8125V3.28472C11.0078 4.17089 10.4745 4.96369 9.64919 5.30447L9.63597 5.30995C8.81055 5.65289 7.87244 5.46952 7.24577 4.84298L6.91187 4.50909C6.73483 4.332 6.49942 4.2345 6.24897 4.2345C5.99856 4.2345 5.76316 4.33205 5.58602 4.50909L4.92316 5.172C4.55758 5.53753 4.55758 6.13228 4.92316 6.49786L5.25695 6.83166C5.88353 7.45828 6.06691 8.39634 5.72416 9.22153L5.7198 9.23217C5.3777 10.0605 4.58491 10.5938 3.69873 10.5938H3.22656C2.70963 10.5938 2.28906 11.0143 2.28906 11.5312V12.4688C2.28906 12.9857 2.70963 13.4062 3.22656 13.4062H3.69873C4.58486 13.4062 5.37766 13.9395 5.71853 14.7648L5.72463 14.7795C6.06677 15.6045 5.8833 16.542 5.257 17.1683L4.92316 17.5022C4.74606 17.6792 4.64856 17.9147 4.64856 18.1651C4.64856 18.4155 4.74606 18.6509 4.92316 18.828L5.58606 19.4909C5.76311 19.668 5.99856 19.7655 6.24897 19.7655C6.49942 19.7655 6.73478 19.668 6.91187 19.491L7.24572 19.1571C7.66267 18.7402 8.21767 18.5194 8.78537 18.5194C9.07084 18.5194 9.35945 18.5752 9.63555 18.6899L9.6482 18.6951C10.4745 19.0363 11.0078 19.8291 11.0078 20.7153V21.1875C11.0078 21.7044 11.4284 22.125 11.9453 22.125H12.8828C13.3997 22.125 13.8203 21.7044 13.8203 21.1875V20.7153C13.8203 19.8291 14.3536 19.0363 15.1789 18.6955L15.1922 18.69C16.0176 18.3472 16.9557 18.5305 17.5824 19.157L17.9163 19.4909C18.0933 19.668 18.3287 19.7655 18.5792 19.7655C18.8296 19.7655 19.065 19.668 19.2421 19.4909L19.905 18.828C20.0821 18.6509 20.1796 18.4155 20.1796 18.1651C20.1796 17.9147 20.0821 17.6792 19.905 17.5022L19.5711 17.1683C18.9449 16.542 18.7614 15.6045 19.1035 14.7795L19.1096 14.7648C19.4504 13.9395 20.2432 13.4062 21.1294 13.4062H21.6016ZM15.8541 12C15.8541 13.8999 14.3139 15.44 12.4141 15.44C10.5142 15.44 8.97406 13.8999 8.97406 12C8.97406 10.1001 10.5142 8.56 12.4141 8.56C14.3139 8.56 15.8541 10.1001 15.8541 12ZM17.8541 12C17.8541 15.0044 15.4185 17.44 12.4141 17.44C9.40963 17.44 6.97406 15.0044 6.97406 12C6.97406 8.99557 9.40963 6.56 12.4141 6.56C15.4185 6.56 17.8541 8.99557 17.8541 12Z" fill="#7E98DF"/>
</svg>
