<svg width="37" height="25" viewBox="0 0 37 25" fill="none" xmlns="http://www.w3.org/2000/svg">
<path fill-rule="evenodd" clip-rule="evenodd" d="M3.5294 12.4742L3.96346 13.9905C4.49284 15.8397 5.82948 16.8001 7.03622 16.8001C7.2081 16.8001 7.37555 16.7826 7.53847 16.7489C8.48854 16.5527 9.90508 16.4881 11.1482 17.3441L18.7696 22.5917L18.7696 2.34426L11.0659 7.64862C9.84159 8.49158 8.4482 8.44057 7.50991 8.25822C7.35609 8.22833 7.19816 8.21273 7.03622 8.21273C5.84146 8.21273 4.52196 9.15171 3.97988 10.9662L3.5294 12.4742ZM2.32453 12.4695L2 12.4129V12.5217L2.32453 12.4695ZM1.75912 14.5633C0.787583 14.5633 0 13.7757 0 12.8042V12.1266C0 11.1551 0.787583 10.3675 1.75911 10.3675C1.86295 10.3675 1.96468 10.3765 2.06357 10.3938C2.79152 7.95702 4.74307 6.21273 7.03622 6.21273C7.32741 6.21273 7.61309 6.24086 7.89145 6.29495C8.59148 6.43099 9.34428 6.40576 9.93164 6.00134L17.6354 0.696978C18.9623 -0.216638 20.7696 0.733261 20.7696 2.34426V22.5917C20.7696 24.2027 18.9623 25.1526 17.6354 24.239L10.014 18.9914C9.41769 18.5808 8.65198 18.5612 7.94295 18.7076C7.64836 18.7684 7.3454 18.8001 7.03623 18.8001C4.71861 18.8001 2.74993 17.0184 2.04069 14.5409C1.94901 14.5556 1.85496 14.5633 1.75912 14.5633ZM28.5003 13.4479C28.5003 10.4766 26.6087 8.4657 24.7145 8.4657V6.4657C28.1066 6.4657 30.5003 9.81152 30.5003 13.4479C30.5003 17.0843 28.1066 20.4302 24.7145 20.4302V18.4302C26.6087 18.4302 28.5003 16.4193 28.5003 13.4479ZM29.5003 6.07281C30.7455 6.07281 31.9671 6.7777 32.9167 8.10706C33.8648 9.4345 34.4826 11.3196 34.4826 13.4479C34.4826 15.5763 33.8648 17.4614 32.9167 18.7888C31.9671 20.1182 30.7455 20.8231 29.5003 20.8231V22.8231C31.559 22.8231 33.3285 21.6531 34.5441 19.9513C35.7611 18.2475 36.4826 15.9451 36.4826 13.4479C36.4826 10.9508 35.7611 8.64835 34.5441 6.94459C33.3285 5.24275 31.559 4.07281 29.5003 4.07281V6.07281Z" fill="white"/>
</svg>
