<svg width="73" height="72" viewBox="0 0 73 72" fill="none" xmlns="http://www.w3.org/2000/svg">
<rect x="0.5" y="0.000366211" width="72" height="72" rx="30" fill="#FF0000"/>
<path d="M24.7855 41.0271L29.1737 41.0271C30.3834 41.0271 31.3677 40.0428 31.3677 38.833L31.3677 36.8384C31.3677 35.9219 32.1136 35.1764 33.0296 35.1762L41.6788 35.1799C42.5974 35.1799 43.3409 35.9233 43.3409 36.8421C43.3409 37.1634 43.3409 38.0859 43.3409 38.8367C43.3409 40.0412 44.3137 41.0308 45.5362 41.0307L49.9162 41.0238C51.126 41.0238 52.1103 40.0395 52.1103 38.833C52.1142 37.934 52.1155 37.644 52.1172 37.241C52.1172 32.8783 48.568 29.329 44.2055 29.329L30.5034 29.3254C26.1305 29.3254 22.5915 32.864 22.5915 37.2373L22.5915 38.8331C22.5915 40.0429 23.5757 41.0271 24.7855 41.0271ZM50.6476 38.8298C50.6476 39.233 50.3196 39.5611 49.9151 39.5612L45.535 39.5681C45.1308 39.5681 44.8037 39.241 44.8037 38.8367L44.8037 38.1053L50.6508 38.1053L50.6476 38.8298ZM30.5032 30.7881L44.2053 30.7918C47.5806 30.7918 50.3234 33.349 50.6267 36.6426L44.7966 36.6426C44.6943 35.0083 43.3393 33.7171 41.679 33.7171L33.0302 33.7135C33.0302 33.7135 33.03 33.7135 33.03 33.7135C31.3715 33.7135 30.0145 35.0026 29.9121 36.6389H24.0818C24.3821 33.3536 27.1046 30.7881 30.5032 30.7881ZM24.0541 38.8331V38.1017L29.905 38.1017L29.905 38.833C29.905 39.2363 29.577 39.5644 29.1737 39.5644H24.7855C24.3822 39.5644 24.0541 39.2363 24.0541 38.8331Z" fill="white"/>
</svg>
