<?xml version="1.0" encoding="utf-8"?>
<!-- Generator: Adobe Illustrator 25.0.0, SVG Export Plug-In . SVG Version: 6.00 Build 0)  -->
<svg version="1.1" id="Layer_1" xmlns="http://www.w3.org/2000/svg" xmlns:xlink="http://www.w3.org/1999/xlink" x="0px" y="0px"
	 viewBox="0 0 16 17" style="enable-background:new 0 0 16 17;" xml:space="preserve">
<style type="text/css">
	.st0{fill-rule:evenodd;clip-rule:evenodd;fill:#2675EC;}
	.st1{fill-rule:evenodd;clip-rule:evenodd;fill:#FFFFFF;filter:url(#Adobe_OpacityMaskFilter);}
	.st2{mask:url(#path-1-inside-1_1_);fill:#2675EC;}
</style>
<path class="st0" d="M7.9,0C7.2,0,6.5,0.6,6.5,1.4c0,0.1,0,0.2,0,0.2c-1.7,0.6-2.9,2.2-2.9,4c0,0.2,0,0.5,0.1,0.7
	c0.1,0.6,0.1,1.3-0.2,1.8l-3.2,5.6c-0.8,1.3,0.2,3,1.7,3h11.9c1.5,0,2.5-1.7,1.7-3l-3.3-5.6C12,7.5,12,6.9,12.1,6.3
	c0-0.2,0-0.4,0-0.6c0-1.8-1.2-3.4-2.8-4c0-0.1,0-0.2,0-0.2C9.4,0.6,8.7,0,7.9,0z"/>
<defs>
	<filter id="Adobe_OpacityMaskFilter" filterUnits="userSpaceOnUse" x="-2" y="-2" width="19.9" height="20.7">
		<feColorMatrix  type="matrix" values="1 0 0 0 0  0 1 0 0 0  0 0 1 0 0  0 0 0 1 0"/>
	</filter>
</defs>
<mask maskUnits="userSpaceOnUse" x="-2" y="-2" width="19.9" height="20.7" id="path-1-inside-1_1_">
	<path class="st1" d="M7.9,0C7.2,0,6.5,0.6,6.5,1.4c0,0.1,0,0.2,0,0.2c-1.7,0.6-2.9,2.2-2.9,4c0,0.2,0,0.5,0.1,0.7
		c0.1,0.6,0.1,1.3-0.2,1.8l-3.2,5.6c-0.8,1.3,0.2,3,1.7,3h11.9c1.5,0,2.5-1.7,1.7-3l-3.3-5.6C12,7.5,12,6.9,12.1,6.3
		c0-0.2,0-0.4,0-0.6c0-1.8-1.2-3.4-2.8-4c0-0.1,0-0.2,0-0.2C9.4,0.6,8.7,0,7.9,0z"/>
</mask>
<path class="st2" d="M6.5,1.6l0.6,1.9L8.8,3L8.5,1.3L6.5,1.6z M3.7,6.3l-2,0.3l0,0L3.7,6.3z M3.5,8.1l1.7,1L3.5,8.1z M0.3,13.7
	l1.7,1L0.3,13.7z M15.6,13.7l1.7-1l0,0L15.6,13.7z M12.3,8.1l-1.7,1L12.3,8.1z M12.1,6.3l2,0.3v0L12.1,6.3z M9.3,1.7l-2-0.3L7.1,3
	l1.6,0.6L9.3,1.7z M8.5,1.4C8.5,1.7,8.3,2,7.9,2v-4C6.1-2,4.5-0.5,4.5,1.4H8.5z M8.5,1.3C8.5,1.4,8.5,1.4,8.5,1.3l-4,0.1
	c0,0.2,0,0.4,0,0.5L8.5,1.3z M5.9-0.3C3.4,0.6,1.7,2.9,1.7,5.7h4c0-1,0.6-1.8,1.5-2.1L5.9-0.3z M1.7,5.7c0,0.3,0,0.7,0.1,1l4-0.6
	c0-0.1,0-0.2,0-0.4H1.7z M1.7,6.6c0,0.2,0,0.3,0,0.4c0,0.1,0,0.1,0,0.1l3.5,2C5.9,8,5.8,6.8,5.7,6L1.7,6.6z M1.8,7.1l-3.2,5.6l3.5,2
	l3.2-5.6L1.8,7.1z M-1.5,12.7c-1.5,2.7,0.4,6,3.5,6v-4h0L-1.5,12.7z M2,18.7h11.9v-4H2V18.7z M13.9,18.7c3.1,0,5-3.3,3.5-6l-3.5,2
	l0,0V18.7z M17.3,12.7l-3.3-5.6l-3.5,2l3.3,5.6L17.3,12.7z M14.1,7.1C14.1,7.1,14.1,7.1,14.1,7.1c0-0.2,0-0.3,0-0.5l-4-0.6
	C10,6.8,10,8,10.6,9.1L14.1,7.1z M14.1,6.6c0-0.3,0.1-0.6,0.1-0.9h-4c0,0.1,0,0.2,0,0.3L14.1,6.6z M14.2,5.7c0-2.7-1.7-5-4.2-5.9
	L8.7,3.5c0.9,0.3,1.5,1.1,1.5,2.1H14.2z M7.4,1.4C7.4,1.4,7.4,1.4,7.4,1.4L11.3,2c0-0.2,0.1-0.4,0.1-0.6H7.4z M7.9,2
	C7.6,2,7.4,1.7,7.4,1.4h4C11.4-0.5,9.8-2,7.9-2V2z"/>
</svg>
